<svg xmlns="http://www.w3.org/2000/svg" xmlns:xlink="http://www.w3.org/1999/xlink" width="147.445" height="50.575" viewBox="0 0 147.445 50.575"><defs><style>.a,.b,.c,.d{fill-rule:evenodd;}.a{fill:url(#a);}.b{fill:#009aff;}.c{fill:url(#b);}.d{fill:#fbb03b;}.e{fill:#fff;}</style><linearGradient id="a" x1="1.164" y1="0.177" x2="0.142" y2="1.023" gradientUnits="objectBoundingBox"><stop offset="0.362" stop-color="#009aff"/><stop offset="0.45" stop-color="#0095f8"/><stop offset="0.578" stop-color="#0088e4"/><stop offset="0.729" stop-color="#0073c5"/><stop offset="0.897" stop-color="#00569a"/><stop offset="1" stop-color="#00427c"/></linearGradient><linearGradient id="b" x1="-0.189" y1="0.156" x2="0.833" y2="1.002" gradientUnits="objectBoundingBox"><stop offset="0" stop-color="#f7931e"/><stop offset="0.362" stop-color="#fbb03b"/><stop offset="0.479" stop-color="#faa939"/><stop offset="0.648" stop-color="#f79534"/><stop offset="0.847" stop-color="#f4762b"/><stop offset="1" stop-color="#f15a24"/></linearGradient></defs><g transform="translate(-750.44 -491.857)"><path class="a" d="M85.48,60.139,97.21,48.4V28.857l-25.877,25.9L91.6,34.476l.047-.047L74.56,52.692a6.99,6.99,0,0,0-.87,1.223c-.057.1-.112.2-.161.3a3.187,3.187,0,0,0-.149.355l-.016.043,0,.006A4.1,4.1,0,0,0,76.414,60l.013,0a9.17,9.17,0,0,0,1.655.136Z" transform="translate(680.085 463)"/><path class="b" d="M89.636,61.563h-11.8a9.169,9.169,0,0,1-1.655-.136l-.013,0a4.1,4.1,0,0,1-3.051-5.378l0-.006L73.13,56a3.186,3.186,0,0,1,.149-.355c.049-.1.1-.2.161-.3a6.989,6.989,0,0,1,.87-1.223L91.393,35.853l-.047.047L71.083,56.185a4.914,4.914,0,0,0-.978,3.131c-.01,2.237,1.528,3.692,3.161,5.31l16.37,16.229V61.563Z" transform="translate(680.335 461.576)"/><path class="c" d="M115.549,60.139,103.82,48.4V28.857l25.876,25.9L109.433,34.476l-.047-.047,17.082,18.263a6.984,6.984,0,0,1,.871,1.223c.057.1.111.2.16.3a3.04,3.04,0,0,1,.149.355l.015.043,0,.006a4.05,4.05,0,0,1,.232,1.36A4.1,4.1,0,0,1,124.615,60l-.012,0a9.188,9.188,0,0,1-1.657.136Z" transform="translate(673.474 463)"/><path class="d" d="M112.565,61.563h11.8a9.187,9.187,0,0,0,1.657-.136l.012,0a4.1,4.1,0,0,0,3.282-4.018,4.049,4.049,0,0,0-.232-1.36l0-.006L129.071,56a3.039,3.039,0,0,0-.149-.355c-.049-.1-.1-.2-.16-.3a6.985,6.985,0,0,0-.871-1.223L110.808,35.853l.047.047,20.263,20.285a4.894,4.894,0,0,1,.977,3.131c.012,2.237-1.526,3.692-3.16,5.31l-16.37,16.229V61.563Z" transform="translate(672.052 461.576)"/><g transform="translate(819.872 497.429)"><path class="e" d="M84.464,129.731v-10.1H74.258v10.1H68.723V104.574h5.535v9.956H84.464v-9.956H90v25.157Z" transform="translate(-68.723 -96.955)"/><path class="e" d="M105.554,131.208c-7.764,0-13.334-5.786-13.334-12.938V118.2a13.01,13.01,0,0,1,13.406-13.01c7.763,0,13.333,5.786,13.333,12.938v.072A13.009,13.009,0,0,1,105.554,131.208Zm7.619-13.01a7.643,7.643,0,0,0-7.619-7.906,7.525,7.525,0,0,0-7.548,7.834v.072a7.645,7.645,0,0,0,7.62,7.907,7.525,7.525,0,0,0,7.547-7.836Zm-10.459-14.555H98.581L103,98h5.175l4.421,5.643h-4.205l-2.839-2.373Z" transform="translate(-64.984 -98.001)"/><path class="e" d="M120.43,129.731V104.574h5.535V124.7h12.543v5.031Z" transform="translate(-60.496 -96.955)"/></g></g></svg>